<?xml version="1.0" standalone="no"?>
<!DOCTYPE svg PUBLIC "-//W3C//DTD SVG 20010904//EN" "http://www.w3.org/TR/2001/REC-SVG-20010904/DTD/svg10.dtd">
<svg xmlns="http://www.w3.org/2000/svg" 
    xmlns:xlink="http://www.w3.org/1999/xlink"
    xmlns:krita="http://krita.org/namespaces/svg/krita"
    xmlns:sodipodi="http://sodipodi.sourceforge.net/DTD/sodipodi-0.dtd"
    width="864pt"
    height="576pt"
    viewBox="0 0 864 576">
<defs/>
<path id="shape0" transform="matrix(3 0 0 -3 184.224 576)" fill="#ffffff" stroke-opacity="0" stroke="#000000" stroke-width="0" stroke-linecap="square" stroke-linejoin="bevel" d="M128.537 88.9883C127.71 88.5919 123.834 117.143 125.28 106.366C131.217 109.949 135.617 114.664 138.047 120.332C142.179 129.967 142.42 145.8 129.501 158.708C118.182 170.016 104.576 174.908 84.0135 175.059C61.2042 174.89 43.9538 167.575 32.7381 153.317C22.2355 139.966 16.8077 120.682 16.6052 96C16.8077 71.3178 22.2355 52.0336 32.7381 38.6827C43.9538 24.4249 61.2039 17.11 84.0132 16.9405C106.988 17.1113 124.539 24.4614 136.184 38.788C141.894 45.8136 146.199 54.6488 149.037 64.9503L165.184 60.6422C161.744 47.9622 156.331 37.0357 148.965 27.974C134.036 9.60668 112.202 0.195148 84.0695 0L83.9569 0C55.8816 0.19447 34.2921 9.6418 19.7883 28.0793C6.8819 44.4864 0.2244 67.3157 0.0007 95.9325L0 96L0.0007 96.0675C0.2244 124.684 6.8819 147.514 19.7883 163.921C34.2921 182.358 55.8816 191.806 83.9569 192L84.0695 192C109.03 191.827 126.624 185.292 141.118 170.811C160.081 151.866 159.51 128.119 153.26 113.541C148.776 103.087 140.227 94.5962 128.537 88.9883Z" sodipodi:nodetypes="ccccccccccccccccccccccccc"/><path id="shape1" transform="translate(319.555968569009, 173.050699851921)" fill="none" stroke="#ffffff" stroke-width="51.12" stroke-linecap="square" stroke-linejoin="bevel" d="M228.641 117.692C128.838 164.12 11.0604 128.964 1.25854 71.5394C-9.26733 9.87324 48.7563 -6.87218 81.2503 2.36632C113.744 11.6048 123.56 47.2057 123.244 78.5477C123.033 99.4424 122.073 167.528 120.364 282.805" sodipodi:nodetypes="cszzc"/>
</svg>
